# xmcd CD database file
#
# Track frame offsets:
#	151
#	8106
#	27294
#	56428
#	67721
#	93899
#	109941
#	123613
#	146181
#	155641
#	164191
#
# Disc length: 2281 seconds
#
# Revision: 0
# Processed by: cddbd v1.5.1PL0 Copyright (c) Steve Scherf et al.
# Submitted via: CDex 1.51
#
DISCID=9508e70b
DTITLE=Deep Purple - Demos In The Basement [CD2]
DYEAR=1900
DGENRE=Hard Rock
TTITLE0=Ramshacle Man(Demo)
TTITLE1=A Twist In The Tale(Demo)
TTITLE2=Anya(Demo,12/92)
TTITLE3=The Battle Rages On(Inst.Demo)
TTITLE4=The Battle Rages On(Demo)
TTITLE5=Lick It Up(Routh Take)
TTITLE6=Solitaire(Demo)
TTITLE7=Anya(Edit)
TTITLE8=Time To Kill(Excerpt)
TTITLE9=The Battle Rages On(Excerpt)
TTITLE10=Talk About Love(Excerpt)
EXTD=
EXTT0=
EXTT1=
EXTT2=
EXTT3=
EXTT4=
EXTT5=
EXTT6=
EXTT7=
EXTT8=
EXTT9=
EXTT10=
PLAYORDER=
